# xmcd CD database file
#
# Track frame offsets:
#	150
#	31373
#	50088
#	74359
#	100741
#	125604
#	149242
#	166445
#	181462
#	202494
#	232818
#	247938
#	273369
#	287646
#	310316
#
# Disc length: 4435 seconds
#
# Revision: 0
# Processed by: cddbd v1.5PL3 Copyright (c) Steve Scherf et al.
# Submitted via: CDex 1.51
#
DISCID=eb11510f
DTITLE=Earl Hines - Muggsy Spanier - Earl Hines - Muggsy Spanier All Stars
DYEAR=1954
DGENRE=Jazz
TTITLE0=My Monday Date
TTITLE1=Mood Indigo
TTITLE2=Wang-Wang Blues
TTITLE3=Pops Blues
TTITLE4=Apex Blues
TTITLE5=Caravan
TTITLE6=I ain't got nobody
TTITLE7=Mahogany Hall Stomp
TTITLE8=Savoy Blues
TTITLE9=I Found a New Baby
TTITLE10=Relax'n at the Touro
TTITLE11=Bugle Call Rag
TTITLE12=I'm coming Virginia
TTITLE13=It's Right Here for You
TTITLE14=When the Saints
EXTD=YEAR: 1954
EXTT0=
EXTT1=
EXTT2=
EXTT3=
EXTT4=
EXTT5=
EXTT6=
EXTT7=
EXTT8=
EXTT9=
EXTT10=
EXTT11=
EXTT12=
EXTT13=
EXTT14=
PLAYORDER=
